Patient4_TMGait_0pt8_01_left_47_EMG.mot
version=1
nRows=29
nColumns=33
inDegrees=no
endheader
time	1LAddLong	2LGlutMax	3LGlutMed	4LIliopsoas	5LSemiMemb	6LBicFemLong	7LRecFem	8LVastMed	9LVastLat	10LGasMed	11LTibAnt	12lTibPost	13LPeroneusLong	14LSol	15LExtDigLong	16LFlexDigLong	17RAddLong	18RGlutMax	19RGlutMed	20RIliopsoas	21RSemiMemb	22RBicFemLong	23RRecFem	24RVastMed	25RVastLat	26RGasMed	27RTibAnt	28RTibPost	29RPeroneusLong	30RSol	31RExtDigLong	32RFlexDigLong
53.503	0.009613	0.29343	-0.048523	0.014038	0.010834	-0.13382	-0.027466	0.002289	0.17777	-0.065002	0.002289	-0.01358	0.043793	-0.059814	-0.08316	-0.000153	-0.014343	-0.060272	-0.31372	0.009766	0.046082	0.052643	-0.20279	0.0177	0.091553	-0.010071	-0.023346	-0.006104	1.2412	0.11002	0.014954	-0.007782
53.504	0.029297	0.25207	-0.041962	-0.003357	0.043488	-0.092926	-0.041809	0.001373	0.15671	-0.035248	0.007935	-0.010376	0.032349	-0.19516	-0.051117	-0.011139	-0.030518	0.020752	-0.48721	0.044556	0.070496	-0.025635	-0.067291	0.044098	0.13351	-0.021362	-0.054932	-0.005951	1.4612	-0.007172	0.016479	-0.009918
53.505	0.023651	0.25772	-0.04364	-0.005188	0.029449	-0.060272	-0.038605	0.002594	0.159	-0.050201	0.008087	-0.009918	0.02655	-0.1828	-0.020599	0.010376	-0.027161	0.11078	-0.46097	0.057526	0.002899	-0.010376	0.01358	0.045013	0.094299	-0.022888	-0.085754	-0.001678	0.000305	-0.12268	0.012817	-0.013123
53.506	0.018616	0.24124	-0.014954	-0.01358	0.01236	-0.027771	-0.016022	0.003052	0.16129	-0.041504	0.011749	-0.010834	0.032806	-0.015869	0.015869	0.005341	-0.024872	0.14572	-0.1799	0.001373	-0.036926	-0.01709	-0.025177	-0.003662	0.005188	-0.020142	-0.055389	-0.00885	-0.65674	-0.2002	0.009766	-0.010376
53.507	0.011902	0.23514	-0.047607	0.005798	-0.02655	-0.027313	-0.037994	0.002441	0.15488	-0.0354	0.004272	-0.007172	0.033264	0.049744	0.051727	-0.005188	-0.014191	0.1152	0.28473	-0.016479	-0.038147	-0.090942	-0.056763	-0.11139	-0.029602	-0.015411	-0.034332	-0.006866	-0.49439	-0.24567	0.011902	-0.010529
53.508	0.016479	0.22003	-0.061798	0.008087	-0.019226	-0.007324	-0.030975	0.003204	0.14893	-0.025024	0.015411	-0.014648	0.04715	0.013428	0.049744	0.000458	-0.017242	0.04364	0.35461	-0.0383	-0.079803	-0.12054	-0.3894	-0.16541	-0.047455	-0.012054	0.023193	-0.00946	-0.74646	-0.16464	0.011444	-0.01236
53.509	0.007935	0.18982	-0.074768	0.009155	-0.005188	-0.000916	-0.036774	0.00824	0.1294	-0.045624	0.015411	-0.007172	0.057831	-0.029602	0.020752	-0.001373	0.001984	0.11459	0.52704	-0.074005	-0.14954	-0.032349	-0.57342	-0.12589	-0.033417	-0.010834	0.007477	-0.008698	-0.16144	0.017548	0.009766	-0.007935
53.51	0.011597	0.18662	-0.076294	-0.00061	-0.018158	0.011749	-0.01709	0.006714	0.12482	-0.049744	0.005798	-0.010834	0.050659	-0.071106	0.012817	-0.00946	0.004883	0.103	0.7843	-0.11902	-0.14053	-0.027618	-0.27298	0.01236	0.05249	-0.00885	-0.072937	-0.009613	0.66605	0.15427	-0.000305	-0.001221
53.511	0.007172	0.15243	-0.065155	-0.006714	-0.029297	0.007782	-0.019684	0.00885	0.12421	-0.048218	0.009766	-0.000763	0.039063	-0.06012	0.010376	0.005188	0.003967	-0.049133	0.085449	-0.19898	-0.005035	-0.055542	-0.10834	-0.016174	0.002441	0.005035	-0.18249	-0.008698	1.0616	-0.017395	0.005341	-0.002441
53.512	0.00824	0.15427	-0.052338	-0.002441	-0.064087	0.001373	-0.043488	0.008545	0.11887	-0.037994	0.017242	-0.008545	0.04303	-0.063171	0.00885	-0.009003	-0.004425	-0.018463	-0.15625	-0.13473	0.081482	-0.072327	-0.097046	-0.059509	0.010071	0.002594	-0.13809	-0.008087	0.77133	-0.007324	0.014801	-0.006256
53.513	0.005951	0.14221	-0.055847	-0.000458	-0.025787	-0.013275	-0.028839	0.006866	0.11932	-0.009003	0.016022	-0.012512	0.032349	-0.084686	0.008698	-0.010986	-0.00412	0.026093	-0.21164	-0.10895	0.019531	-0.05249	-0.10819	-0.075989	-0.008087	-0.019989	0.026093	-0.015106	-0.13351	0.09491	0.01358	-0.010986
53.514	-0.004883	0.13748	-0.043335	0.00885	0.037689	0.019073	-0.036469	0.009003	0.12604	-0.013123	0.015259	-0.011292	0.04303	-0.21576	0.003357	-0.007324	0.003204	0.062103	0.3743	-0.13794	-0.061646	-0.059814	-0.13382	-0.12772	-0.028839	-0.009613	0.097809	-0.01297	-0.083466	-0.01709	0.007935	-0.005188
53.515	-0.002899	0.12283	-0.087891	0.019989	0.003815	0.032043	-0.022278	0.00412	0.12436	-0.029602	0.017395	0.00351	0.035706	-0.24002	0.011749	-0.005188	0.024109	0.12482	0.177	0.078583	0.023499	-0.13641	-0.11795	-0.13138	-0.011292	0.000763	0.1648	-0.008698	0.036163	-0.1471	0.008545	-0.00351
53.516	0.00946	0.121	-0.15076	0.005951	0.00473	0.02243	-0.031586	0.017395	0.12604	-0.062714	0.013733	-0.00946	0.038757	-0.1445	0	-0.002136	0.022278	0.11414	0.29984	0.12482	-0.013428	-0.13992	-0.10483	-0.083313	0.00351	0.005951	0.23621	-0.023499	0.23575	0.004883	0.009003	-0.003357
53.517	-0.004425	0.099182	-0.15976	0.010376	-0.037689	0.014496	-0.034027	0.008698	0.12726	-0.059967	0.017548	-0.010986	0.039368	0.007019	-0.00061	-0.010376	0.026398	0.036316	0.15259	0.13412	-0.11505	-0.086517	-0.097351	-0.069733	-0.009155	0.005798	0.32577	-0.027466	-2.7083	0.10742	0.013428	-0.005188
53.518	-0.007172	0.10101	-0.11841	0.006409	-0.0914	-0.022888	-0.030212	0.015259	0.13001	-0.078125	0.023499	-0.014801	0.075226	0.032501	-0.002136	-0.009308	-0.004425	0.014191	0.077667	0.26977	-0.15381	0.054016	-0.12909	-0.04776	0.025024	0.000305	0.50736	-0.014496	-2.9782	0.27268	0.007477	-0.002594
53.519	0.016937	0.075531	-0.062714	-0.002136	-0.079651	-0.085144	-0.047913	-0.001373	0.13412	-0.11734	0.016479	-0.014496	0.074005	-0.12924	-0.002594	0.002747	-0.011749	0.001526	0.5368	0.26138	-0.2066	0.080261	-0.047455	-0.056305	-0.029297	-0.000916	0.35477	0.009155	-0.57999	0.049744	0.006256	-0.011902
53.52	0.027771	0.040436	-0.007935	0.005493	-0.001526	-0.09491	-0.03006	-0.005341	0.11017	-0.077209	0.020599	-0.012512	0.058899	-0.26077	-0.006409	-0.009613	-0.019073	0.046844	0.53757	0.18173	-0.060272	0.020294	-0.20294	0.028229	-0.027618	0.004425	0.12817	0.022125	1.8892	-0.48966	0.005188	-0.012665
53.521	0.029449	0.066071	-0.044861	-0.002899	0.082092	-0.073853	-0.038452	0.000305	0.12192	-0.054169	0.023499	-0.01709	0.028229	-0.11353	0.003815	-0.002136	0.016327	0.040131	0.31921	0.096588	0.049744	-0.15228	-0.14008	-0.041046	-0.003052	0.006256	-0.018921	-0.023956	1.6869	-0.70801	0.004578	-0.01236
53.522	0.022888	0.021057	-0.04837	-0.005035	0.038147	-0.010529	-0.033722	-0.00061	0.13184	-0.047607	0.018158	-0.010223	0.038605	0.008545	0.009613	-0.006866	0.014038	0.001526	-0.005646	0.029602	-0.058289	-0.22125	-0.004883	-0.048981	-0.019989	0.004883	-0.32913	-0.075226	0.40314	-0.056152	0.003967	-0.012512
53.523	0.020752	0.030365	-0.075531	0.005798	0.027161	0.025177	-0.019989	0.002289	0.11917	-0.013123	0.01709	-0.022736	0.010071	-0.014648	0.003204	-0.01297	-0.010376	-0.006866	0.34653	-0.041504	-0.049438	-0.16892	0.095978	-0.06073	-0.042114	-0.006409	-0.26032	0.040741	-0.94009	0.4245	0.002747	-0.01358
53.524	0.015259	0.055542	-0.072784	0.002594	0.015411	0.014496	-0.015259	0.000458	0.121	-0.036926	0.022125	-0.014038	-0.042725	-0.029297	-0.007019	0.001831	-0.012054	-0.003204	0.43289	0.023651	0.050659	-0.17517	0.11307	0.034943	-0.030518	0.008698	-0.18249	0.004883	-0.30106	0.15717	0.014191	-0.009308
53.525	0.01297	0.049133	-0.065155	0.008545	0.004578	0.006104	-0.009308	0.004272	0.098419	-0.041809	0.020599	-0.009613	-0.019836	-0.083771	-0.006256	-0.002594	-0.013123	-0.096436	-0.17883	0.046539	0.019989	-0.04425	0.021057	0.053253	-0.076141	-0.001526	-0.20309	-0.014343	-0.30395	-0.030365	0.000763	-0.01236
53.526	0.008392	0.02121	0.078125	0.002747	-0.009003	-0.010834	-0.005035	0.004883	0.092163	-0.054016	0.018921	-0.022278	0.010529	-0.12344	-0.014496	-0.002289	-0.029144	-0.070953	0.10208	-0.005951	-0.089722	0.13962	-0.031128	0.042572	-0.16083	-0.027161	-0.072937	-0.025787	-0.003815	-0.38879	0.010223	-0.015869
53.527	-0.004578	-0.011139	0.058289	0.001526	-0.008392	-0.008392	-0.007172	0.007172	0.09201	-0.06424	0.018158	-0.014191	0.028992	-0.15915	-0.004883	-0.007324	-0.025177	-0.071259	1.0771	-0.028534	0.027161	0.18646	0.015411	-0.032959	0.052643	-0.016022	0.04303	-0.022278	0.39825	-0.51895	0.001831	-0.010071
53.528	0.006866	0.004272	-0.002594	0.005341	-0.014343	-0.01358	-0.027008	0.012207	0.10681	-0.055847	0.003662	-0.0177	0.036163	-0.11459	0.001221	-0.000153	-0.022736	-0.10208	0.86594	-0.071869	0.13077	0.14069	-0.15274	-0.04715	0.29343	0.00412	-0.018311	0.00473	0.084991	-0.43335	0.007935	-0.005341
53.529	0.006561	-0.014191	-0.030975	-0.002899	0.006409	-0.024567	-0.025787	0.00412	0.1091	-0.037079	-0.033569	-0.017242	0.040436	-0.074921	-0.014954	-0.000305	-0.007782	-0.16617	0.87082	-0.011139	0.066223	0.10712	-0.22858	-0.010376	0.45761	0.018768	-0.074005	-0.014191	0.029602	0.21439	-0.000458	-0.002899
53.53	0.012512	-0.020905	0.00412	0.00412	-0.006409	-0.008087	-0.042572	0.01358	0.10178	-0.034027	-0.023804	-0.011292	0.037842	-0.10162	-0.016632	0.009003	-0.002747	-0.1683	0.84701	0.049438	-0.017548	0.041199	-0.052795	-0.12543	0.36652	0.00946	-0.056763	-0.033264	0.62408	0.57449	0.003052	-0.006409
53.531	0.007172	-0.014343	0.0383	-0.02121	-0.00885	-0.019684	-0.028229	0	0.10376	-0.040436	0.003204	-0.017548	0.04425	-0.19974	-0.018005	-0.006409	-0.005035	-0.20065	0.17838	0.021057	0.014648	0.02182	0.02182	-0.26138	0.23636	-0.012207	0.034332	-0.034485	0.3305	0.31342	0.002441	-0.009003
